# xmcd
#
# Track frame offsets:
#	150
#	80772
#	85611
#	92905
#	141093
#	154576
#	187219
#	238964
#
# Disc length: 3681 seconds
#
# Revision: 1
# Processed by: cddbd v1.5.2PL0 Copyright (c) Steve Scherf et al.
# Submitted via: audiograbber 1.83.01
#
DISCID=670e5f08
DTITLE=Grateful Dead - 73-09-07 Nassau Veterans Memorial Coliseum, Uniondale NY
DYEAR=1900
DGENRE=
TTITLE0=Playing In The Band
TTITLE1=Stage Banter
TTITLE2=Beer Barrel Polka tuning
TTITLE3=Here Comes Sunshine
TTITLE4=Me and My Uncle
TTITLE5=Loser
TTITLE6=Let It Grow
TTITLE7=Stella Blue
EXTD=
EXTT0=
EXTT1=
EXTT2=
EXTT3=
EXTT4=
EXTT5=
EXTT6=
EXTT7=
PLAYORDER=
